<?xml version="1.0" encoding="utf-8"?>
<!-- Generator: Adobe Adobe Illustrator 28.3.0, SVG Export Plug-In . SVG Version: 6.00 Build 0)  -->
<svg version="1.1" id="Layer_1" xmlns="http://www.w3.org/2000/svg" xmlns:xlink="http://www.w3.org/1999/xlink" x="0px" y="0px"
	 width="1280px" height="1280px" viewBox="0 0 1280 1280" style="enable-background:new 0 0 1280 1280;" xml:space="preserve">
<style type="text/css">
	.st0{fill:#40A5DB}
</style>
<g>
	<path class="st0" d="M682.57,568.25h214.81v307.3c-33.43,10.66-67.42,18.73-102,24.2c-34.58,5.47-74.63,8.21-120.16,8.21
		c-95.67,0-170.15-28.45-223.45-85.36c-53.31-56.9-79.96-136.65-79.96-239.23c0-65.7,13.18-123.25,39.55-172.67
		c26.36-49.41,64.32-87.16,113.89-113.24c49.56-26.07,107.62-39.12,174.18-39.12c67.42,0,130.24,12.39,188.44,37.17l-28.53,64.83
		c-57.05-24.2-111.94-36.31-164.67-36.31c-76.93,0-137.01,22.91-180.23,68.72c-43.22,45.81-64.83,109.35-64.83,190.6
		c0,85.29,20.81,149.98,62.45,194.06c41.63,44.09,102.79,66.13,183.47,66.13c43.79,0,86.58-5.04,128.37-15.13V633.95H682.57V568.25z
		"/>
</g>
</svg>
