<?xml version="1.0" encoding="utf-8"?>
<!-- Generator: Adobe Adobe Illustrator 28.4.0, SVG Export Plug-In . SVG Version: 6.00 Build 0)  -->
<svg version="1.1" id="Layer_1" xmlns="http://www.w3.org/2000/svg" xmlns:xlink="http://www.w3.org/1999/xlink" x="0px" y="0px"
	 width="256px" height="255px" viewBox="0 0 256 255" style="enable-background:new 0 0 256 255;" xml:space="preserve">
<g>
	<g>
		<g>
			<path d="M0,0v255h256V0H0z M58,189.9H36.4c0,0-36.2,2.3-36.2-63.1s41.5-60.7,41.5-60.7h86.4v-8.7H66.2l-0.1-29.1
				c0,0-4-28.1,60.8-28.1c67.8,0,62.5,33.9,62.5,33.9v56c0,33.9-34.5,33.3-34.5,33.3H93.6c-36.8,0-35.6,36.2-35.6,36.2V189.9z
				 M214,188.1h-86.4v8.7h61.9l0.1,29.1c0,0,4,28.1-60.8,28.1c-67.8,0-62.5-33.9-62.5-33.9v-56c0-33.9,34.5-33.3,34.5-33.3h61.4
				c36.8,0,35.6-36.2,35.6-36.2V64.3h21.6c0,0,36.2-2.3,36.2,63.1S214,188.1,214,188.1z"/>
			<path d="M92.8,19.7c-6.2,0-11.1,5-11.1,11.1s5,11.1,11.1,11.1s11.1-5,11.1-11.1S99,19.7,92.8,19.7z"/>
			<path d="M162.9,234.5c6.2,0,11.1-5,11.1-11.1c0-6.2-5-11.1-11.1-11.1s-11.1,5-11.1,11.1C151.7,229.6,156.7,234.5,162.9,234.5z"/>
		</g>
	</g>
</g>
</svg>
