<?xml version="1.0" encoding="utf-8"?>
<!-- Generator: Adobe Adobe Illustrator 28.4.0, SVG Export Plug-In . SVG Version: 6.00 Build 0)  -->
<svg version="1.1" id="Layer_1" xmlns="http://www.w3.org/2000/svg" xmlns:xlink="http://www.w3.org/1999/xlink" x="0px" y="0px"
	 width="112px" height="112px" viewBox="0 0 112 112" style="enable-background:new 0 0 112 112;" xml:space="preserve">
<g>
	<g>
		<g>
			<path d="M15.3,97.2c-4.9-7-6.9-15.7-5.4-24.2c0.7-4,2.3-7.8,4.5-11.2c-3.3-6.2-4.3-13.3-3.1-20.2c1.5-8.2,6.4-15.5,13.5-20
				L50.9,5c5-3.2,10.7-4.9,16.5-5H0v112h42.7C32.2,111.7,21.8,106.5,15.3,97.2z"/>
			<path d="M87.9,67.6c0.9-5.1-0.3-10.3-3.3-14.5c-4.9-7.1-13.8-10.4-22.2-8.2c-1.9,0.5-3.7,1.3-5.3,2.3l-10,6.3
				c-0.5,0.3-1,0.5-1.6,0.7c-2.5,0.6-5.2-0.3-6.7-2.5c-0.9-1.3-1.3-2.9-1-4.4c0.2-1.5,1.1-2.8,2.4-3.6L66.3,27
				c0.5-0.3,1-0.5,1.6-0.7c2.5-0.6,5.2,0.3,6.7,2.5c0.8,1.2,1.2,2.5,1.1,3.9l-0.1,1l1,0.3c3.7,1.1,7.1,2.8,10.2,5.1l1.3,1l0.5-1.5
				c0.2-0.8,0.4-1.6,0.6-2.4c0.9-5.1-0.3-10.3-3.3-14.6c-4.9-7.1-13.8-10.4-22.2-8.2c-1.9,0.5-3.7,1.3-5.3,2.3L32.2,32.3
				c-4.3,2.7-7.2,7.1-8.1,12.1c-0.9,5.1,0.3,10.3,3.3,14.5c5,7.2,13.9,10.5,22.3,8.4c1.9-0.5,3.7-1.3,5.3-2.3l10-6.3
				c0.5-0.3,1-0.5,1.6-0.7c2.5-0.6,5.2,0.3,6.7,2.5c0.9,1.3,1.3,2.9,1,4.4s-1.2,2.8-2.5,3.6L45.7,85.1c-0.5,0.3-1,0.5-1.6,0.7
				c-2.5,0.6-5.2-0.3-6.7-2.5c-0.8-1.1-1.2-2.5-1.1-3.9l0.1-1l-1-0.3c-3.7-1.1-7.1-2.8-10.2-5.1l-1.3-1l-0.5,1.5
				c-0.2,0.8-0.4,1.6-0.6,2.4c-0.9,5.1,0.3,10.3,3.3,14.5c4.9,7.1,13.8,10.4,22.2,8.2c1.9-0.5,3.7-1.3,5.3-2.3l26.2-16.6
				C84.1,77,87,72.6,87.9,67.6z"/>
			<path d="M112,0H69.2c10.5,0.3,21,5.5,27.5,14.8c4.9,7,6.9,15.7,5.4,24.2c-0.7,4-2.3,7.8-4.5,11.2c3.3,6.2,4.3,13.3,3.1,20.2
				c-1.5,8.2-6.4,15.5-13.5,20L61.1,107c-5.1,3.2-10.8,4.9-16.5,5H112V0z"/>
		</g>
	</g>
</g>
</svg>
